<?xml version="1.0" standalone="no"?>
<!DOCTYPE svg PUBLIC "-//W3C//DTD SVG 20010904//EN"
 "http://www.w3.org/TR/2001/REC-SVG-20010904/DTD/svg10.dtd">
<svg version="1.0" xmlns="http://www.w3.org/2000/svg"
 width="1097.000000pt" height="1097.000000pt" viewBox="0 0 1097.000000 1097.000000"
 preserveAspectRatio="xMidYMid meet">
<metadata>
Created by potrace 1.11, written by Peter Selinger 2001-2013
</metadata>
<g transform="translate(0.000000,1097.000000) scale(0.100000,-0.100000)"
fill="#000000" stroke="none">
<path d="M1730 10963 c-14 -2 -59 -10 -100 -19 -41 -8 -85 -16 -97 -19 -51 -9
-177 -56 -260 -96 -278 -135 -524 -382 -657 -661 -41 -87 -88 -225 -105 -308
-6 -30 -13 -68 -17 -85 -10 -50 -13 -327 -3 -385 5 -30 11 -71 14 -90 30 -188
131 -415 262 -590 48 -64 188 -205 255 -256 129 -100 291 -186 438 -232 61
-19 88 -25 150 -37 14 -3 36 -7 50 -10 82 -16 296 -22 385 -10 341 46 611 179
845 415 260 263 401 605 400 975 0 175 -6 217 -46 371 -65 254 -197 474 -399
665 -35 33 -83 75 -107 92 -23 17 -45 34 -48 37 -8 9 -140 85 -195 112 -27 14
-88 39 -135 56 -74 26 -124 39 -265 68 -35 7 -328 13 -365 7z m274 -838 c193
-39 362 -191 427 -383 31 -92 35 -234 10 -325 -29 -100 -79 -185 -151 -257
-300 -301 -805 -184 -945 219 -109 311 81 657 405 740 74 18 180 21 254 6z"/>
<path d="M6136 10854 c-72 -17 -149 -60 -197 -111 -33 -35 -150 -176 -409
-498 -127 -158 -387 -479 -477 -590 -40 -49 -77 -94 -81 -100 -48 -66 -332
-396 -471 -550 -25 -28 -59 -66 -76 -86 -16 -19 -77 -88 -136 -154 -236 -268
-256 -303 -264 -445 -22 -404 482 -591 743 -276 24 29 53 63 65 77 12 13 71
80 132 149 60 69 124 141 141 160 80 88 395 453 449 520 33 41 62 77 65 80 3
3 52 64 109 135 126 157 224 278 231 285 3 3 61 75 129 160 68 85 128 159 132
164 4 4 96 -104 205 -240 109 -137 200 -251 204 -254 3 -3 19 -23 35 -45 16
-22 37 -49 47 -60 9 -11 126 -157 259 -325 133 -168 292 -368 354 -445 496
-623 627 -789 675 -850 30 -38 57 -72 60 -75 3 -3 127 -158 275 -345 148 -187
274 -345 280 -351 5 -6 21 -26 35 -44 32 -42 263 -333 270 -340 19 -18 107
-141 162 -225 170 -262 291 -509 387 -792 32 -96 96 -332 106 -393 3 -19 8
-43 11 -53 3 -11 7 -29 9 -40 1 -12 8 -58 14 -102 7 -44 14 -95 17 -114 25
-178 24 -615 -1 -798 -3 -18 -7 -50 -10 -70 -8 -59 -16 -103 -30 -178 -8 -38
-16 -81 -19 -95 -2 -14 -14 -61 -26 -105 -11 -44 -22 -87 -24 -95 -36 -144
-135 -396 -235 -595 -118 -237 -210 -381 -399 -625 -40 -51 -187 -214 -243
-269 -394 -388 -840 -664 -1350 -835 -92 -31 -261 -79 -324 -92 -304 -63 -460
-79 -770 -79 -213 0 -302 5 -449 26 -39 5 -84 11 -101 13 -57 8 -235 46 -307
65 -350 94 -651 223 -938 400 -45 28 -84 51 -86 51 -3 0 -10 5 -17 10 -7 6
-59 45 -117 87 -319 231 -615 537 -836 863 -39 58 -79 119 -88 135 -9 17 -30
53 -46 80 -155 260 -323 695 -374 965 -2 14 -9 45 -14 70 -6 25 -14 65 -17 90
-4 24 -8 47 -10 50 -1 3 -6 36 -10 73 -3 37 -8 77 -10 88 -9 46 -18 235 -19
374 0 195 15 394 40 535 2 14 6 39 9 55 3 17 10 53 15 80 6 28 12 60 15 73 2
13 6 31 9 40 3 9 7 28 10 42 7 36 71 255 94 320 53 150 184 438 242 530 5 8
37 60 71 115 102 164 213 319 374 520 48 61 98 133 111 161 72 162 40 344 -85
469 -46 46 -128 95 -186 110 -52 13 -153 14 -202 1 -122 -33 -176 -75 -302
-236 -46 -58 -94 -118 -107 -135 -79 -98 -315 -448 -383 -567 -11 -21 -31 -55
-42 -75 -29 -51 -159 -311 -159 -318 0 -3 -9 -24 -20 -48 -49 -107 -147 -386
-175 -497 -2 -8 -15 -58 -29 -110 -14 -52 -27 -106 -30 -120 -2 -14 -14 -70
-25 -125 -11 -55 -22 -118 -26 -140 -3 -23 -7 -50 -9 -60 -2 -11 -7 -49 -11
-85 -3 -36 -8 -72 -10 -80 -25 -102 -25 -709 0 -905 2 -16 7 -52 10 -80 10
-85 25 -189 30 -205 2 -8 6 -32 9 -52 9 -62 45 -216 77 -333 81 -297 173 -537
309 -805 51 -101 76 -147 150 -275 150 -260 384 -559 640 -815 155 -156 204
-201 315 -290 44 -36 82 -68 85 -71 32 -36 370 -261 522 -347 101 -57 389
-202 402 -202 3 0 28 -10 54 -21 26 -12 61 -27 77 -34 118 -52 545 -180 665
-200 19 -3 51 -10 70 -15 19 -5 55 -12 79 -15 23 -3 46 -7 50 -9 3 -2 31 -7
62 -10 31 -4 67 -9 79 -11 12 -2 51 -7 88 -11 36 -3 74 -8 84 -9 74 -15 446
-21 629 -12 253 14 621 68 804 119 22 6 45 13 50 14 643 169 1253 494 1745
929 56 49 332 325 386 385 285 319 571 779 741 1193 47 115 129 340 138 380 3
12 18 72 35 132 17 61 32 119 34 130 2 11 9 38 14 60 6 22 13 57 16 77 3 21
10 57 15 80 13 58 31 172 37 233 3 28 7 61 9 75 26 144 26 770 1 930 -3 14 -7
49 -10 78 -50 446 -217 987 -438 1412 -122 237 -298 513 -425 666 -18 22 -82
102 -143 179 -62 77 -124 156 -140 175 -65 82 -395 498 -419 529 -14 19 -31
39 -36 45 -6 6 -44 54 -85 106 -91 115 -88 112 -143 180 -24 30 -178 224 -342
430 -261 329 -352 443 -398 500 -7 8 -82 103 -167 210 -85 107 -165 209 -179
226 -15 17 -38 46 -53 65 -14 19 -153 194 -308 389 -156 195 -313 393 -349
438 -36 46 -71 89 -76 95 -6 7 -44 55 -85 107 -41 52 -80 101 -87 107 -6 7
-20 23 -30 36 -84 108 -262 165 -407 131z"/>
</g>
</svg>
